<?xml version="1.0" standalone="no"?>
<!DOCTYPE svg PUBLIC "-//W3C//DTD SVG 20010904//EN"
 "http://www.w3.org/TR/2001/REC-SVG-20010904/DTD/svg10.dtd">
<svg version="1.0" xmlns="http://www.w3.org/2000/svg"
 width="512.000000pt" height="512.000000pt" viewBox="0 0 512.000000 512.000000"
 preserveAspectRatio="xMidYMid meet">
<metadata>
Created by potrace 1.15, written by Peter Selinger 2001-2017
</metadata>
<g transform="translate(0.000000,512.000000) scale(0.100000,-0.100000)"
fill="#0D47A1" stroke="none">
<path d="M203 4958 c-174 -172 -196 -198 -191 -231 3 -19 32 5 192 163 103
102 192 193 197 203 8 14 5 17 -17 17 -21 0 -60 -33 -181 -152z"/>
<path d="M303 4858 c-140 -139 -264 -265 -275 -281 -10 -15 -18 -37 -16 -50 3
-18 49 23 292 263 158 157 292 293 297 303 8 14 5 17 -17 17 -22 0 -75 -47
-281 -252z"/>
<path d="M402 4758 c-194 -194 -362 -365 -373 -381 -11 -15 -19 -37 -17 -50 4
-18 67 40 392 363 213 212 392 393 397 403 8 14 5 17 -18 17 -22 0 -89 -62
-381 -352z"/>
<path d="M502 4658 c-249 -249 -462 -465 -473 -481 -11 -15 -19 -37 -17 -50 4
-18 84 57 492 463 268 267 492 493 497 503 8 14 5 17 -18 17 -22 0 -104 -76
-481 -452z"/>
<path d="M602 4558 c-304 -304 -562 -565 -573 -581 -11 -15 -19 -37 -17 -50 4
-18 101 75 592 563 323 322 592 593 597 603 8 14 5 17 -18 17 -23 0 -118 -91
-581 -552z"/>
<path d="M702 4458 c-359 -359 -662 -665 -673 -681 -11 -15 -19 -37 -17 -50 4
-18 118 92 692 663 378 377 692 693 697 703 8 14 5 17 -18 17 -23 0 -133 -106
-681 -652z"/>
<path d="M802 4358 c-414 -414 -762 -765 -773 -781 -11 -15 -19 -37 -17 -50 4
-18 136 109 792 763 433 432 792 793 797 803 8 14 5 17 -18 17 -23 0 -148
-120 -781 -752z"/>
<path d="M902 4258 c-469 -469 -862 -865 -873 -881 -11 -15 -19 -37 -17 -50 4
-18 153 126 892 863 488 487 892 893 897 903 8 14 5 17 -18 17 -23 0 -162
-135 -881 -852z"/>
<path d="M1002 4158 c-524 -524 -962 -965 -973 -981 -11 -15 -19 -37 -17 -50
4 -18 170 144 992 963 543 542 992 993 997 1003 8 14 5 17 -18 17 -23 0 -177
-149 -981 -952z"/>
<path d="M1675 4630 c-399 -398 -485 -480 -508 -480 -23 0 -27 -4 -27 -27 0
-23 -94 -122 -565 -593 -469 -469 -565 -570 -565 -593 0 -15 3 -27 7 -27 4 0
259 251 565 557 l558 558 0 -65 0 -65 -565 -565 c-469 -469 -565 -570 -565
-593 0 -15 3 -27 7 -27 4 0 259 251 565 557 l558 558 0 -65 0 -65 -565 -565
c-469 -469 -565 -570 -565 -593 0 -15 3 -27 7 -27 4 0 259 251 565 557 l558
558 0 -65 0 -65 -565 -565 c-469 -469 -565 -570 -565 -593 0 -15 3 -27 7 -27
4 0 259 251 565 557 l558 558 0 -65 0 -65 -565 -565 c-469 -469 -565 -570
-565 -593 0 -15 3 -27 7 -27 4 0 259 251 565 557 307 307 558 552 558 545 0
-8 17 -12 52 -12 l53 0 -618 -618 c-513 -513 -617 -622 -617 -645 0 -15 3 -27
7 -27 4 0 460 452 1013 1005 l1005 1005 70 6 70 6 -1083 -1084 c-907 -908
-1082 -1088 -1082 -1111 0 -15 3 -27 7 -27 4 0 493 485 1085 1077 l1078 1078
0 -65 0 -65 -1085 -1085 c-910 -910 -1085 -1090 -1085 -1113 0 -15 3 -27 7
-27 4 0 493 485 1085 1077 l1078 1078 0 -65 0 -65 -1085 -1085 c-910 -910
-1085 -1090 -1085 -1113 0 -15 3 -27 7 -27 4 0 493 485 1085 1077 l1078 1078
0 -65 0 -65 -1085 -1085 c-910 -910 -1085 -1090 -1085 -1113 0 -15 3 -27 7
-27 4 0 493 485 1085 1077 l1078 1078 0 -65 0 -65 -1085 -1085 c-910 -910
-1085 -1090 -1085 -1113 0 -15 3 -27 7 -27 4 0 493 485 1085 1077 l1078 1078
0 -65 0 -65 -1085 -1085 c-910 -910 -1085 -1090 -1085 -1113 0 -15 3 -27 7
-27 4 0 493 485 1085 1077 l1078 1078 0 -65 0 -65 -1085 -1085 c-910 -910
-1085 -1090 -1085 -1113 0 -15 3 -27 7 -27 4 0 493 485 1085 1077 l1078 1078
0 -65 0 -65 -1085 -1085 c-910 -910 -1085 -1090 -1085 -1113 0 -15 3 -27 7
-27 4 0 493 485 1085 1077 l1078 1078 0 -65 0 -65 -1085 -1085 c-910 -910
-1085 -1090 -1085 -1113 0 -15 3 -27 7 -27 4 0 493 485 1085 1077 l1078 1078
0 -65 0 -65 -1051 -1050 c-577 -578 -1055 -1058 -1060 -1067 -8 -15 -5 -18 18
-18 23 0 188 161 1060 1032 l1033 1033 0 -65 0 -65 -951 -950 c-522 -523 -955
-958 -960 -967 -8 -15 -5 -18 18 -18 23 0 174 146 960 932 l933 933 0 -65 0
-65 -851 -850 c-467 -468 -855 -858 -860 -868 -8 -14 -5 -17 18 -17 23 0 159
132 860 832 l833 833 0 -65 0 -65 -218 -218 c-119 -119 -223 -217 -230 -217
-6 0 -12 -6 -12 -13 0 -6 -234 -246 -521 -532 -286 -286 -525 -528 -530 -538
-8 -14 -5 -17 18 -17 23 0 111 84 530 502 289 289 503 495 503 485 0 -14 9
-17 47 -17 l48 0 -478 -478 c-262 -263 -477 -481 -477 -485 0 -4 12 -7 27 -7
22 0 111 84 513 485 l485 485 65 0 65 0 -478 -478 c-262 -263 -477 -481 -477
-485 0 -4 12 -7 27 -7 22 0 111 84 513 485 l485 485 65 0 65 0 -478 -478
c-262 -263 -477 -481 -477 -485 0 -4 12 -7 27 -7 22 0 111 84 513 485 l485
485 65 0 65 0 -478 -478 c-262 -263 -477 -481 -477 -485 0 -4 12 -7 27 -7 22
0 111 84 513 485 l485 485 65 0 65 0 -478 -478 c-262 -263 -477 -481 -477
-485 0 -4 12 -7 27 -7 22 0 111 84 513 485 l485 485 65 0 65 0 -478 -478
c-262 -263 -477 -481 -477 -485 0 -4 12 -7 27 -7 22 0 111 84 513 485 l485
485 65 0 65 0 -478 -478 c-262 -263 -477 -481 -477 -485 0 -4 12 -7 27 -7 22
0 111 84 513 485 l485 485 65 0 65 0 -478 -478 c-262 -263 -477 -481 -477
-485 0 -4 12 -7 27 -7 22 0 111 84 513 485 l485 485 63 0 62 0 0 62 0 63 855
855 c720 721 855 860 855 883 0 23 -3 26 -17 18 -10 -5 -409 -402 -888 -880
l-870 -871 -42 0 c-23 0 -49 3 -58 6 -13 5 209 232 929 953 792 792 946 951
946 974 0 15 -3 27 -7 27 -4 0 -445 -437 -980 -972 l-971 -971 -47 18 -47 18
1026 1026 c860 860 1026 1031 1026 1054 0 15 -3 27 -7 27 -4 0 -474 -466
-1044 -1036 -619 -619 -1041 -1034 -1048 -1030 -6 4 -18 21 -27 38 l-16 31
1071 1071 c898 899 1071 1076 1071 1099 0 15 -3 27 -7 27 -4 0 -490 -482
-1080 -1072 l-1071 -1071 -6 34 c-3 19 -7 44 -8 56 -2 18 219 245 1085 1111
912 912 1087 1092 1087 1115 0 15 -3 27 -7 27 -4 0 -495 -487 -1090 -1082
l-1083 -1083 0 65 0 65 1090 1090 c914 915 1090 1095 1090 1118 0 15 -3 27 -7
27 -4 0 -495 -487 -1090 -1082 l-1083 -1083 0 65 0 65 1090 1090 c914 915
1090 1095 1090 1118 0 15 -3 27 -7 27 -4 0 -495 -487 -1090 -1082 l-1083
-1083 0 65 0 65 1090 1090 c914 915 1090 1095 1090 1118 0 15 -3 27 -7 27 -4
0 -495 -487 -1090 -1082 l-1083 -1083 0 65 0 65 488 488 c443 443 490 487 520
487 29 0 32 3 32 32 0 30 52 85 570 603 473 474 570 575 570 598 0 15 -3 27
-7 27 -4 0 -261 -253 -570 -562 l-563 -563 0 65 0 65 570 570 c473 474 570
575 570 598 0 15 -3 27 -7 27 -4 0 -261 -253 -570 -562 l-563 -563 0 65 0 65
570 570 c473 474 570 575 570 598 0 15 -3 27 -7 27 -4 0 -261 -253 -570 -562
l-563 -563 0 65 0 65 570 570 c473 474 570 575 570 598 0 15 -3 27 -7 27 -4 0
-261 -253 -570 -562 l-563 -563 0 65 0 65 506 505 c278 278 510 513 515 523 8
14 5 17 -18 17 -23 0 -109 -81 -513 -483 l-485 -482 -58 5 -57 5 460 460 c254
253 466 468 471 478 8 14 5 17 -18 17 -23 0 -108 -80 -508 -480 l-480 -480
-65 0 -65 0 473 473 c259 260 472 476 472 480 0 4 -12 7 -27 7 -22 0 -111 -83
-508 -480 l-480 -480 -65 0 -65 0 473 473 c259 260 472 476 472 480 0 4 -12 7
-27 7 -22 0 -111 -83 -508 -480 l-480 -480 -65 0 -65 0 473 473 c259 260 472
476 472 480 0 4 -12 7 -27 7 -22 0 -111 -83 -508 -480 l-480 -480 -65 0 -65 0
473 473 c259 260 472 476 472 480 0 4 -12 7 -27 7 -22 0 -111 -83 -508 -480
l-480 -480 -65 0 -65 0 473 473 c259 260 472 476 472 480 0 4 -12 7 -27 7 -22
0 -111 -83 -508 -480 l-480 -480 -65 0 -65 0 473 473 c259 260 472 476 472
480 0 4 -12 7 -27 7 -22 0 -111 -83 -508 -480 l-480 -480 -65 0 -65 0 473 473
c259 260 472 476 472 480 0 4 -12 7 -27 7 -22 0 -111 -83 -508 -480 l-480
-480 -65 0 -65 0 473 473 c259 260 472 476 472 480 0 4 -12 7 -27 7 -22 0
-111 -83 -508 -480 l-480 -480 -65 0 -65 0 473 473 c259 260 472 476 472 480
0 4 -12 7 -27 7 -22 0 -111 -83 -508 -480 l-480 -480 -65 0 -65 0 473 473
c259 260 472 476 472 480 0 4 -12 7 -27 7 -22 0 -111 -83 -508 -480 l-480
-480 -65 0 -65 0 473 473 c259 260 472 476 472 480 0 4 -12 7 -27 7 -22 0
-111 -83 -508 -480 l-480 -480 -65 0 -65 0 473 473 c259 260 472 476 472 480
0 4 -12 7 -27 7 -22 0 -111 -83 -508 -480 l-480 -480 -65 0 -65 0 473 473
c259 260 472 476 472 480 0 4 -12 7 -27 7 -22 0 -111 -83 -508 -480z m1467
-719 c4 -4 -39 -54 -97 -111 l-105 -105 0 65 c0 64 0 65 50 115 48 48 51 50
97 47 27 -2 51 -7 55 -11z m-1517 -331 c-181 -181 -331 -327 -333 -325 -3 2 1
35 8 72 l12 68 242 242 241 243 65 14 c36 8 72 14 80 15 8 1 -133 -147 -315
-329z m1681 302 c10 -5 -44 -65 -176 -197 l-190 -190 0 65 0 65 138 138 137
138 39 -6 c22 -3 45 -9 52 -13z m116 -43 l41 -21 -259 -259 -259 -259 -3 62
-3 62 218 218 c120 120 219 218 221 218 1 0 21 -9 44 -21z m126 -76 l33 -28
-321 -320 -320 -320 0 65 0 65 282 282 c156 156 285 283 288 283 3 0 20 -12
38 -27z m108 -99 l23 -30 -369 -369 -370 -370 0 65 0 65 337 337 c186 186 342
337 347 335 5 -2 20 -17 32 -33z m85 -125 l12 -31 -404 -404 -404 -404 -3 62
-3 62 382 382 c276 276 386 380 395 373 6 -5 18 -23 25 -40z m-365 -607 l-431
-432 -3 62 -3 62 418 418 418 418 16 -47 17 -48 -432 -433z m457 303 l7 -41
-450 -449 -450 -450 0 65 0 65 437 437 c274 274 440 433 444 425 3 -6 9 -30
12 -52z m-1663 -1851 l-11 -69 -92 -93 c-51 -52 -101 -97 -112 -101 -11 -5
-47 -11 -80 -15 l-60 -7 180 180 c98 99 181 179 182 177 2 -2 -1 -34 -7 -72z"/>
<path d="M3796 1350 c-724 -723 -1322 -1323 -1327 -1332 -8 -15 -5 -18 18 -18
23 0 225 197 1311 1283 706 705 1292 1294 1303 1310 11 15 19 37 17 50 -4 18
-227 -201 -1322 -1293z"/>
<path d="M3896 1250 c-669 -668 -1222 -1223 -1227 -1232 -8 -15 -5 -18 18 -18
23 0 210 183 1211 1182 651 651 1192 1195 1203 1211 11 15 19 37 17 50 -4 18
-210 -183 -1222 -1193z"/>
<path d="M3996 1150 c-614 -613 -1122 -1123 -1127 -1132 -8 -15 -5 -18 18 -18
23 0 196 168 1111 1082 596 596 1092 1095 1103 1111 11 15 19 37 17 50 -4 18
-193 -166 -1122 -1093z"/>
<path d="M4096 1050 c-559 -558 -1022 -1023 -1027 -1033 -8 -14 -5 -17 18 -17
23 0 181 153 1011 983 541 540 992 994 1003 1010 11 15 19 37 17 50 -4 18
-175 -149 -1022 -993z"/>
<path d="M4196 950 c-504 -503 -922 -923 -927 -932 -8 -15 -5 -18 18 -18 23 0
167 139 911 882 486 486 892 895 903 911 11 15 19 37 17 50 -4 18 -158 -132
-922 -893z"/>
<path d="M4296 850 c-449 -448 -822 -823 -827 -832 -8 -15 -5 -18 18 -18 23 0
152 124 811 783 431 430 792 794 803 810 11 15 19 37 17 50 -4 18 -141 -114
-822 -793z"/>
<path d="M4396 750 c-394 -393 -722 -723 -727 -732 -8 -15 -5 -18 18 -18 23 0
137 110 711 683 376 375 692 694 703 710 11 15 19 37 17 50 -4 18 -124 -97
-722 -693z"/>
<path d="M4496 650 c-339 -338 -622 -623 -627 -632 -8 -15 -5 -18 18 -18 23 0
123 95 611 583 321 320 592 594 603 610 11 15 19 37 17 50 -4 18 -106 -80
-622 -593z"/>
<path d="M4596 550 c-284 -283 -522 -523 -527 -533 -8 -14 -5 -17 18 -17 23 0
108 81 511 483 266 265 492 494 503 510 11 15 19 37 17 50 -4 18 -89 -62 -522
-493z"/>
<path d="M4696 450 c-229 -228 -422 -423 -427 -432 -8 -15 -5 -18 18 -18 22 0
93 66 411 383 211 210 392 394 403 410 11 15 19 37 17 50 -4 18 -72 -45 -422
-393z"/>
<path d="M4796 350 c-174 -173 -322 -323 -327 -332 -8 -15 -5 -18 17 -18 23 0
80 52 312 282 156 156 293 295 303 311 11 15 19 37 17 50 -4 18 -54 -28 -322
-293z"/>
<path d="M4896 250 c-119 -118 -222 -223 -227 -232 -8 -15 -5 -18 17 -18 21 0
65 37 211 183 205 202 226 227 221 260 -3 19 -37 -11 -222 -193z"/>
<path d="M4996 150 c-136 -133 -149 -150 -111 -150 18 0 49 23 111 82 102 98
127 130 122 161 -3 19 -19 7 -122 -93z"/>
</g>
</svg>
